<?xml version="1.0" encoding="UTF-8"?>
<svg xmlns="http://www.w3.org/2000/svg" width="5120" height="2880" viewBox="0 0 5120 2880" fill="none">
  <defs>
    <linearGradient id="baseWash" x1="0" y1="0" x2="5120" y2="2880" gradientUnits="userSpaceOnUse">
      <stop offset="0%" stop-color="#FAFAFA"/>
      <stop offset="42%" stop-color="#FFFFFF"/>
      <stop offset="100%" stop-color="#F7F7F7"/>
    </linearGradient>
    <radialGradient id="centerCalm" cx="50%" cy="46%" r="58%" gradientUnits="objectBoundingBox">
      <stop offset="0%" stop-color="#FFFFFF" stop-opacity="0.92"/>
      <stop offset="100%" stop-color="#FFFFFF" stop-opacity="0"/>
    </radialGradient>
    <filter id="paperShadow" x="-30%" y="-30%" width="160%" height="160%" color-interpolation-filters="sRGB">
      <feDropShadow dx="0" dy="14" stdDeviation="22" flood-color="#C8C8C8" flood-opacity="0.42"/>
      <feDropShadow dx="0" dy="4" stdDeviation="6" flood-color="#E8E8E8" flood-opacity="0.55"/>
    </filter>
    <filter id="softShadowLg" x="-40%" y="-40%" width="180%" height="180%" color-interpolation-filters="sRGB">
      <feDropShadow dx="0" dy="18" stdDeviation="28" flood-color="#C8C8C8" flood-opacity="0.38"/>
      <feDropShadow dx="0" dy="6" stdDeviation="10" flood-color="#E0E0E0" flood-opacity="0.48"/>
    </filter>
    <filter id="softShadowMd" x="-50%" y="-50%" width="200%" height="200%" color-interpolation-filters="sRGB">
      <feDropShadow dx="0" dy="10" stdDeviation="16" flood-color="#CFCFCF" flood-opacity="0.4"/>
    </filter>
    <filter id="buttonLift" x="-80%" y="-80%" width="260%" height="260%" color-interpolation-filters="sRGB">
      <feDropShadow dx="0" dy="5" stdDeviation="7" flood-color="#D0D0D0" flood-opacity="0.55"/>
      <feDropShadow dx="0" dy="-2" stdDeviation="3" flood-color="#FFFFFF" flood-opacity="0.85"/>
    </filter>
    <filter id="ringGlow" x="-60%" y="-60%" width="220%" height="220%" color-interpolation-filters="sRGB">
      <feDropShadow dx="0" dy="8" stdDeviation="12" flood-color="#D4D4D4" flood-opacity="0.35"/>
    </filter>
    <filter id="lineShadow" x="-20%" y="-20%" width="140%" height="140%" color-interpolation-filters="sRGB">
      <feDropShadow dx="0" dy="3" stdDeviation="4" flood-color="#D8D8D8" flood-opacity="0.45"/>
    </filter>
  </defs>

  <rect width="5120" height="2880" fill="url(#baseWash)"/>
  <rect width="5120" height="2880" fill="url(#centerCalm)"/>

  <g id="corner-discs" opacity="0.98">
    <circle cx="-420.0" cy="-380.0" r="1180.0" fill="#FFFFFF" filter="url(#softShadowLg)"/>
    <circle cx="-520.0" cy="3300.0" r="1320.0" fill="#FFFFFF" filter="url(#softShadowLg)"/>
    <circle cx="5600.0" cy="3400.0" r="1420.0" fill="#FFFFFF" filter="url(#softShadowLg)"/>
    <circle cx="5400.0" cy="-220.0" r="760.0" fill="#FFFFFF" filter="url(#softShadowMd)"/>
  </g>

  <g id="flowing-bands">
    <path d="M -73.5 2588.4 C 980.0 1896.3 2480.0 1196.3 4726.5 528.4 L 4633.5 311.6 C 2473.0 1163.7 973.0 1863.7 -166.5 2371.6 Z" fill="#FFFFFF" opacity="0.98" filter="url(#paperShadow)" data-band="0"/>
    <path d="M -44.6 2769.3 C 1180.0 2092.4 2780.0 1392.4 5155.4 709.3 L 5084.6 530.7 C 2774.7 1367.6 1174.7 2067.6 -115.4 2590.7 Z" fill="#FFFFFF" opacity="0.95" filter="url(#paperShadow)" data-band="1"/>
    <path d="M 267.3 2988.8 C 1480.0 2289.6 3180.0 1589.6 5147.3 1048.8 L 5092.7 911.2 C 3175.9 1570.4 1475.9 2270.4 212.7 2851.2 Z" fill="#FFFFFF" opacity="0.92" filter="url(#paperShadow)" data-band="2"/>
    <path d="M 543.1 2813.2 C 1720.0 2148.1 3520.0 1448.1 5143.1 813.2 L 5096.9 706.8 C 3516.5 1431.9 1716.5 2131.9 496.9 2706.8 Z" fill="#FFFFFF" opacity="0.9" filter="url(#paperShadow)" data-band="3"/>
    <path d="M 875.9 2898.9 C 1960.0 2365.6 3860.0 1665.6 5135.9 1158.9 L 5104.1 1081.1 C 3857.6 1654.4 1957.6 2354.4 844.1 2821.1 Z" fill="#FFFFFF" opacity="0.88" filter="url(#paperShadow)" data-band="4"/>
  </g>

  <g id="medium-discs">
    <circle cx="4300.0" cy="620.0" r="280.0" fill="#FFFFFF" filter="url(#softShadowMd)"/>
    <circle cx="760.0" cy="520.0" r="220.0" fill="#FFFFFF" filter="url(#softShadowMd)"/>
    <circle cx="4480.0" cy="2280.0" r="340.0" fill="#FFFFFF" filter="url(#softShadowMd)"/>
    <circle cx="620.0" cy="2360.0" r="260.0" fill="#FFFFFF" filter="url(#softShadowMd)"/>
    <circle cx="3820.0" cy="2480.0" r="200.0" fill="#FFFFFF" filter="url(#softShadowMd)"/>
  </g>

  <g id="rings">
    <circle cx="1120.0" cy="1680.0" r="110.0" fill="none" stroke="#FFFFFF" stroke-width="3.5" filter="url(#ringGlow)"/>
    <circle cx="3960.0" cy="1520.0" r="92.0" fill="none" stroke="#FFFFFF" stroke-width="3.5" filter="url(#ringGlow)"/>
    <circle cx="680.0" cy="980.0" r="74.0" fill="none" stroke="#FFFFFF" stroke-width="3.5" filter="url(#ringGlow)"/>
    <circle cx="4440.0" cy="620.0" r="66.0" fill="none" stroke="#FFFFFF" stroke-width="3.5" filter="url(#ringGlow)"/>
  </g>

  <g id="accent-lines">
    <path d="M 3180.0 180.0 C 3620.0 420.0 4040.0 260.0 4680.0 520.0" fill="none" stroke="#FFFFFF" stroke-width="2.5" stroke-linecap="round" filter="url(#lineShadow)"/>
    <circle cx="3180.0" cy="180.0" r="10.0" fill="#FFFFFF" filter="url(#buttonLift)"/>
    <circle cx="4040.0" cy="260.0" r="10.0" fill="#FFFFFF" filter="url(#buttonLift)"/>
    <circle cx="4680.0" cy="520.0" r="10.0" fill="#FFFFFF" filter="url(#buttonLift)"/>
    <path d="M 420.0 2480.0 C 920.0 2140.0 1280.0 2360.0 1680.0 2060.0" fill="none" stroke="#FFFFFF" stroke-width="2.5" stroke-linecap="round" filter="url(#lineShadow)"/>
    <circle cx="420.0" cy="2480.0" r="10.0" fill="#FFFFFF" filter="url(#buttonLift)"/>
    <circle cx="1280.0" cy="2360.0" r="10.0" fill="#FFFFFF" filter="url(#buttonLift)"/>
    <circle cx="1680.0" cy="2060.0" r="10.0" fill="#FFFFFF" filter="url(#buttonLift)"/>
    <path d="M 3520.0 2480.0 C 3920.0 2280.0 4280.0 2520.0 4720.0 2320.0" fill="none" stroke="#FFFFFF" stroke-width="2.5" stroke-linecap="round" filter="url(#lineShadow)"/>
    <circle cx="3520.0" cy="2480.0" r="10.0" fill="#FFFFFF" filter="url(#buttonLift)"/>
    <circle cx="4280.0" cy="2520.0" r="10.0" fill="#FFFFFF" filter="url(#buttonLift)"/>
  </g>

  <g id="button-dots">
    <circle cx="983.0" cy="425.0" r="34.0" fill="#D8D8D8" opacity="0.45"/>
    <circle cx="980.0" cy="420.0" r="34.0" fill="#FFFFFF" filter="url(#buttonLift)"/>
    <circle cx="1243.0" cy="765.0" r="22.0" fill="#D8D8D8" opacity="0.45"/>
    <circle cx="1240.0" cy="760.0" r="22.0" fill="#FFFFFF" filter="url(#buttonLift)"/>
    <circle cx="4043.0" cy="545.0" r="28.0" fill="#D8D8D8" opacity="0.45"/>
    <circle cx="4040.0" cy="540.0" r="28.0" fill="#FFFFFF" filter="url(#buttonLift)"/>
    <circle cx="4383.0" cy="985.0" r="18.0" fill="#D8D8D8" opacity="0.45"/>
    <circle cx="4380.0" cy="980.0" r="18.0" fill="#FFFFFF" filter="url(#buttonLift)"/>
    <circle cx="523.0" cy="1885.0" r="26.0" fill="#D8D8D8" opacity="0.45"/>
    <circle cx="520.0" cy="1880.0" r="26.0" fill="#FFFFFF" filter="url(#buttonLift)"/>
    <circle cx="863.0" cy="2525.0" r="20.0" fill="#D8D8D8" opacity="0.45"/>
    <circle cx="860.0" cy="2520.0" r="20.0" fill="#FFFFFF" filter="url(#buttonLift)"/>
    <circle cx="4683.0" cy="1765.0" r="24.0" fill="#D8D8D8" opacity="0.45"/>
    <circle cx="4680.0" cy="1760.0" r="24.0" fill="#FFFFFF" filter="url(#buttonLift)"/>
    <circle cx="4123.0" cy="2625.0" r="30.0" fill="#D8D8D8" opacity="0.45"/>
    <circle cx="4120.0" cy="2620.0" r="30.0" fill="#FFFFFF" filter="url(#buttonLift)"/>
    <circle cx="1563.0" cy="325.0" r="16.0" fill="#D8D8D8" opacity="0.45"/>
    <circle cx="1560.0" cy="320.0" r="16.0" fill="#FFFFFF" filter="url(#buttonLift)"/>
    <circle cx="2863.0" cy="2485.0" r="18.0" fill="#D8D8D8" opacity="0.45"/>
    <circle cx="2860.0" cy="2480.0" r="18.0" fill="#FFFFFF" filter="url(#buttonLift)"/>
    <circle cx="3183.0" cy="385.0" r="20.0" fill="#D8D8D8" opacity="0.45"/>
    <circle cx="3180.0" cy="380.0" r="20.0" fill="#FFFFFF" filter="url(#buttonLift)"/>
    <circle cx="983.0" cy="1285.0" r="14.0" fill="#D8D8D8" opacity="0.45"/>
    <circle cx="980.0" cy="1280.0" r="14.0" fill="#FFFFFF" filter="url(#buttonLift)"/>
    <circle cx="4583.0" cy="1385.0" r="16.0" fill="#D8D8D8" opacity="0.45"/>
    <circle cx="4580.0" cy="1380.0" r="16.0" fill="#FFFFFF" filter="url(#buttonLift)"/>
  </g>
</svg>