<?xml version="1.0" encoding="UTF-8"?>
<svg xmlns="http://www.w3.org/2000/svg" width="5120" height="2880" viewBox="0 0 5120 2880" fill="none">
  <defs>
    <linearGradient id="baseWash" x1="0" y1="0" x2="5120" y2="2880" gradientUnits="userSpaceOnUse">
      <stop offset="0%" stop-color="#FAFAFA"/>
      <stop offset="42%" stop-color="#FFFFFF"/>
      <stop offset="100%" stop-color="#F7F7F7"/>
    </linearGradient>
    <radialGradient id="centerCalm" cx="50%" cy="46%" r="58%" gradientUnits="objectBoundingBox">
      <stop offset="0%" stop-color="#FFFFFF" stop-opacity="0.92"/>
      <stop offset="100%" stop-color="#FFFFFF" stop-opacity="0"/>
    </radialGradient>
    <filter id="paperShadow" x="-30%" y="-30%" width="160%" height="160%" color-interpolation-filters="sRGB">
      <feDropShadow dx="0" dy="14" stdDeviation="22" flood-color="#C8C8C8" flood-opacity="0.42"/>
      <feDropShadow dx="0" dy="4" stdDeviation="6" flood-color="#E8E8E8" flood-opacity="0.55"/>
    </filter>
    <filter id="softShadowLg" x="-40%" y="-40%" width="180%" height="180%" color-interpolation-filters="sRGB">
      <feDropShadow dx="0" dy="18" stdDeviation="28" flood-color="#C8C8C8" flood-opacity="0.38"/>
      <feDropShadow dx="0" dy="6" stdDeviation="10" flood-color="#E0E0E0" flood-opacity="0.48"/>
    </filter>
    <filter id="softShadowMd" x="-50%" y="-50%" width="200%" height="200%" color-interpolation-filters="sRGB">
      <feDropShadow dx="0" dy="10" stdDeviation="16" flood-color="#CFCFCF" flood-opacity="0.4"/>
    </filter>
    <filter id="buttonLift" x="-80%" y="-80%" width="260%" height="260%" color-interpolation-filters="sRGB">
      <feDropShadow dx="0" dy="5" stdDeviation="7" flood-color="#D0D0D0" flood-opacity="0.55"/>
      <feDropShadow dx="0" dy="-2" stdDeviation="3" flood-color="#FFFFFF" flood-opacity="0.85"/>
    </filter>
    <filter id="buttonLiftStrong" x="-100%" y="-100%" width="300%" height="300%" color-interpolation-filters="sRGB">
      <feDropShadow dx="0" dy="7" stdDeviation="9" flood-color="#A8A8A8" flood-opacity="0.62"/>
      <feDropShadow dx="0" dy="3" stdDeviation="4" flood-color="#C4C4C4" flood-opacity="0.48"/>
      <feDropShadow dx="0" dy="-2" stdDeviation="3" flood-color="#FFFFFF" flood-opacity="0.9"/>
    </filter>
    
    <linearGradient id="bandFade0" x1="-1399.2" y1="3029.0" x2="5959.2" y2="-129.0" gradientUnits="userSpaceOnUse">
      <stop offset="0%" stop-color="white" stop-opacity="0"/>
      <stop offset="6.5%" stop-color="white" stop-opacity="1"/>
      <stop offset="93.5%" stop-color="white" stop-opacity="1"/>
      <stop offset="100%" stop-color="white" stop-opacity="0"/>
    </linearGradient>
    <mask id="bandMask0" maskUnits="userSpaceOnUse" x="0" y="0" width="5120" height="2880">
      <rect width="5120" height="2880" fill="url(#bandFade0)"/>
    </mask>
    
    <linearGradient id="bandFade1" x1="-1374.1" y1="3192.7" x2="6414.1" y2="107.3" gradientUnits="userSpaceOnUse">
      <stop offset="0%" stop-color="white" stop-opacity="0"/>
      <stop offset="6.2%" stop-color="white" stop-opacity="1"/>
      <stop offset="93.8%" stop-color="white" stop-opacity="1"/>
      <stop offset="100%" stop-color="white" stop-opacity="0"/>
    </linearGradient>
    <mask id="bandMask1" maskUnits="userSpaceOnUse" x="0" y="0" width="5120" height="2880">
      <rect width="5120" height="2880" fill="url(#bandFade1)"/>
    </mask>
    
    <linearGradient id="bandFade2" x1="-1053.5" y1="3434.2" x2="6413.5" y2="465.8" gradientUnits="userSpaceOnUse">
      <stop offset="0%" stop-color="white" stop-opacity="0"/>
      <stop offset="6.5%" stop-color="white" stop-opacity="1"/>
      <stop offset="93.5%" stop-color="white" stop-opacity="1"/>
      <stop offset="100%" stop-color="white" stop-opacity="0"/>
    </linearGradient>
    <mask id="bandMask2" maskUnits="userSpaceOnUse" x="0" y="0" width="5120" height="2880">
      <rect width="5120" height="2880" fill="url(#bandFade2)"/>
    </mask>
    
    <linearGradient id="bandFade3" x1="-756.6" y1="3315.0" x2="6396.6" y2="205.0" gradientUnits="userSpaceOnUse">
      <stop offset="0%" stop-color="white" stop-opacity="0"/>
      <stop offset="6.7%" stop-color="white" stop-opacity="1"/>
      <stop offset="93.3%" stop-color="white" stop-opacity="1"/>
      <stop offset="100%" stop-color="white" stop-opacity="0"/>
    </linearGradient>
    <mask id="bandMask3" maskUnits="userSpaceOnUse" x="0" y="0" width="5120" height="2880">
      <rect width="5120" height="2880" fill="url(#bandFade3)"/>
    </mask>
    
    <linearGradient id="bandFade4" x1="-428.7" y1="3386.4" x2="6408.7" y2="593.6" gradientUnits="userSpaceOnUse">
      <stop offset="0%" stop-color="white" stop-opacity="0"/>
      <stop offset="7.0%" stop-color="white" stop-opacity="1"/>
      <stop offset="93.0%" stop-color="white" stop-opacity="1"/>
      <stop offset="100%" stop-color="white" stop-opacity="0"/>
    </linearGradient>
    <mask id="bandMask4" maskUnits="userSpaceOnUse" x="0" y="0" width="5120" height="2880">
      <rect width="5120" height="2880" fill="url(#bandFade4)"/>
    </mask>
    
    <linearGradient id="lineFade0" x1="2458.3" y1="16.4" x2="5401.7" y2="683.6" gradientUnits="userSpaceOnUse">
      <stop offset="0%" stop-color="#FFFFFF" stop-opacity="0"/>
      <stop offset="11.9%" stop-color="#FFFFFF" stop-opacity="1"/>
      <stop offset="88.1%" stop-color="#FFFFFF" stop-opacity="1"/>
      <stop offset="100%" stop-color="#FFFFFF" stop-opacity="0"/>
    </linearGradient>
    
    <linearGradient id="lineFade1" x1="-282.0" y1="2714.0" x2="2382.0" y2="1826.0" gradientUnits="userSpaceOnUse">
      <stop offset="0%" stop-color="#FFFFFF" stop-opacity="0"/>
      <stop offset="12.8%" stop-color="#FFFFFF" stop-opacity="1"/>
      <stop offset="87.2%" stop-color="#FFFFFF" stop-opacity="1"/>
      <stop offset="100%" stop-color="#FFFFFF" stop-opacity="0"/>
    </linearGradient>
    
    <linearGradient id="lineFade2" x1="2786.5" y1="2577.8" x2="5453.5" y2="2222.2" gradientUnits="userSpaceOnUse">
      <stop offset="0%" stop-color="#FFFFFF" stop-opacity="0"/>
      <stop offset="13.4%" stop-color="#FFFFFF" stop-opacity="1"/>
      <stop offset="86.6%" stop-color="#FFFFFF" stop-opacity="1"/>
      <stop offset="100%" stop-color="#FFFFFF" stop-opacity="0"/>
    </linearGradient>
    <filter id="ringGlow" x="-60%" y="-60%" width="220%" height="220%" color-interpolation-filters="sRGB">
      <feDropShadow dx="0" dy="8" stdDeviation="12" flood-color="#D4D4D4" flood-opacity="0.35"/>
    </filter>
    <filter id="lineShadow" x="-20%" y="-20%" width="140%" height="140%" color-interpolation-filters="sRGB">
      <feDropShadow dx="0" dy="3" stdDeviation="4" flood-color="#D8D8D8" flood-opacity="0.45"/>
    </filter>
  </defs>

  <rect width="5120" height="2880" fill="url(#baseWash)"/>
  <rect width="5120" height="2880" fill="url(#centerCalm)"/>

  <g id="corner-discs" opacity="0.98">
    <circle cx="-420.0" cy="-380.0" r="1180.0" fill="#FFFFFF" filter="url(#softShadowLg)"/>
    <circle cx="-520.0" cy="3300.0" r="1320.0" fill="#FFFFFF" filter="url(#softShadowLg)"/>
    <circle cx="5600.0" cy="3400.0" r="1420.0" fill="#FFFFFF" filter="url(#softShadowLg)"/>
    <circle cx="5400.0" cy="-220.0" r="760.0" fill="#FFFFFF" filter="url(#softShadowMd)"/>
  </g>

  <g id="flowing-bands">
    <g mask="url(#bandMask0)">
      <path d="M -588.1 2809.3 C 902.8 1929.4 2557.2 1163.2 5241.1 307.6 L 5148.1 90.7 C 2550.2 1130.6 895.8 1896.8 -681.1 2592.4 Z" fill="#FFFFFF" opacity="0.98" filter="url(#paperShadow)" data-band="0"/>
    </g>
    <g mask="url(#bandMask1)">
      <path d="M -565.3 2975.5 C 1101.9 2123.3 2858.1 1361.4 5676.0 503.0 L 5605.3 324.5 C 2852.8 1336.7 1096.6 2098.6 -636.0 2797.0 Z" fill="#FFFFFF" opacity="0.95" filter="url(#paperShadow)" data-band="1"/>
    </g>
    <g mask="url(#bandMask2)">
      <path d="M -253.0 3195.6 C 1401.9 2320.6 3258.1 1558.5 5667.7 841.9 L 5613.0 704.4 C 3254.0 1539.4 1397.8 2301.5 -307.7 3058.1 Z" fill="#FFFFFF" opacity="0.92" filter="url(#paperShadow)" data-band="2"/>
    </g>
    <g mask="url(#bandMask3)">
      <path d="M 29.6 3036.5 C 1643.0 2181.6 3597.0 1414.6 5656.7 589.9 L 5610.4 483.5 C 3593.6 1398.4 1639.5 2165.4 -16.7 2930.1 Z" fill="#FFFFFF" opacity="0.9" filter="url(#paperShadow)" data-band="3"/>
    </g>
    <g mask="url(#bandMask4)">
      <path d="M 357.5 3110.6 C 1882.2 2397.3 3937.8 1633.8 5654.3 947.1 L 5622.5 869.4 C 3935.4 1622.7 1879.9 2386.2 325.7 3032.9 Z" fill="#FFFFFF" opacity="0.88" filter="url(#paperShadow)" data-band="4"/>
    </g>
  </g>

  <g id="medium-discs">
    <circle cx="4300.0" cy="620.0" r="280.0" fill="#FFFFFF" filter="url(#softShadowMd)"/>
    <circle cx="760.0" cy="520.0" r="220.0" fill="#FFFFFF" filter="url(#softShadowMd)"/>
    <circle cx="4480.0" cy="2280.0" r="340.0" fill="#FFFFFF" filter="url(#softShadowMd)"/>
    <circle cx="620.0" cy="2360.0" r="260.0" fill="#FFFFFF" filter="url(#softShadowMd)"/>
    <circle cx="3820.0" cy="2480.0" r="200.0" fill="#FFFFFF" filter="url(#softShadowMd)"/>
  </g>

  <g id="rings">
    <circle cx="1120.0" cy="1680.0" r="110.0" fill="none" stroke="#FFFFFF" stroke-width="3.5" filter="url(#ringGlow)"/>
    <circle cx="3960.0" cy="1520.0" r="92.0" fill="none" stroke="#FFFFFF" stroke-width="3.5" filter="url(#ringGlow)"/>
    <circle cx="680.0" cy="980.0" r="74.0" fill="none" stroke="#FFFFFF" stroke-width="3.5" filter="url(#ringGlow)"/>
    <circle cx="4440.0" cy="620.0" r="66.0" fill="none" stroke="#FFFFFF" stroke-width="3.5" filter="url(#ringGlow)"/>
  </g>

  <g id="accent-lines">
    <path d="M 2809.4 96.0 C 3620.0 420.0 4040.0 260.0 5050.6 604.0" fill="none" stroke="url(#lineFade0)" stroke-width="2.5" stroke-linecap="round" filter="url(#lineShadow)"/>
    <circle cx="3180.0" cy="180.0" r="10.0" fill="#FFFFFF" filter="url(#buttonLift)"/>
    <circle cx="4040.0" cy="260.0" r="10.0" fill="#FFFFFF" filter="url(#buttonLift)"/>
    <circle cx="4680.0" cy="520.0" r="10.0" fill="#FFFFFF" filter="url(#buttonLift)"/>
    <path d="M 59.5 2600.2 C 920.0 2140.0 1280.0 2360.0 2040.5 1939.8" fill="none" stroke="url(#lineFade1)" stroke-width="2.5" stroke-linecap="round" filter="url(#lineShadow)"/>
    <circle cx="420.0" cy="2480.0" r="10.0" fill="#FFFFFF" filter="url(#buttonLift)"/>
    <circle cx="1280.0" cy="2360.0" r="10.0" fill="#FFFFFF" filter="url(#buttonLift)"/>
    <circle cx="1680.0" cy="2060.0" r="10.0" fill="#FFFFFF" filter="url(#buttonLift)"/>
    <path d="M 3143.3 2530.2 C 3920.0 2280.0 4280.0 2520.0 5096.7 2269.8" fill="none" stroke="url(#lineFade2)" stroke-width="2.5" stroke-linecap="round" filter="url(#lineShadow)"/>
    <circle cx="3520.0" cy="2480.0" r="10.0" fill="#FFFFFF" filter="url(#buttonLift)"/>
    <circle cx="4280.0" cy="2520.0" r="10.0" fill="#FFFFFF" filter="url(#buttonLift)"/>
  </g>

  <g id="button-dots">
    <circle cx="984.0" cy="426.0" r="37.7" fill="#A8A8A8" opacity="0.38"/>
    <circle cx="980.0" cy="420.0" r="38.9" fill="none" stroke="#9A9A9A" stroke-width="1.4" opacity="0.72"/>
    <circle cx="980.0" cy="420.0" r="36.7" fill="#F6F6F6" filter="url(#buttonLiftStrong)"/>
    <circle cx="1244.0" cy="766.0" r="24.8" fill="#A8A8A8" opacity="0.38"/>
    <circle cx="1240.0" cy="760.0" r="26.0" fill="none" stroke="#9A9A9A" stroke-width="1.4" opacity="0.72"/>
    <circle cx="1240.0" cy="760.0" r="23.8" fill="#F6F6F6" filter="url(#buttonLiftStrong)"/>
    <circle cx="4044.0" cy="546.0" r="31.2" fill="#A8A8A8" opacity="0.38"/>
    <circle cx="4040.0" cy="540.0" r="32.4" fill="none" stroke="#9A9A9A" stroke-width="1.4" opacity="0.72"/>
    <circle cx="4040.0" cy="540.0" r="30.2" fill="#F6F6F6" filter="url(#buttonLiftStrong)"/>
    <circle cx="4384.0" cy="986.0" r="20.4" fill="#A8A8A8" opacity="0.38"/>
    <circle cx="4380.0" cy="980.0" r="21.6" fill="none" stroke="#9A9A9A" stroke-width="1.4" opacity="0.72"/>
    <circle cx="4380.0" cy="980.0" r="19.4" fill="#F6F6F6" filter="url(#buttonLiftStrong)"/>
    <circle cx="524.0" cy="1886.0" r="29.1" fill="#A8A8A8" opacity="0.38"/>
    <circle cx="520.0" cy="1880.0" r="30.3" fill="none" stroke="#9A9A9A" stroke-width="1.4" opacity="0.72"/>
    <circle cx="520.0" cy="1880.0" r="28.1" fill="#F6F6F6" filter="url(#buttonLiftStrong)"/>
    <circle cx="864.0" cy="2526.0" r="22.6" fill="#A8A8A8" opacity="0.38"/>
    <circle cx="860.0" cy="2520.0" r="23.8" fill="none" stroke="#9A9A9A" stroke-width="1.4" opacity="0.72"/>
    <circle cx="860.0" cy="2520.0" r="21.6" fill="#F6F6F6" filter="url(#buttonLiftStrong)"/>
    <circle cx="4684.0" cy="1766.0" r="26.9" fill="#A8A8A8" opacity="0.38"/>
    <circle cx="4680.0" cy="1760.0" r="28.1" fill="none" stroke="#9A9A9A" stroke-width="1.4" opacity="0.72"/>
    <circle cx="4680.0" cy="1760.0" r="25.9" fill="#F6F6F6" filter="url(#buttonLiftStrong)"/>
    <circle cx="4124.0" cy="2626.0" r="33.4" fill="#A8A8A8" opacity="0.38"/>
    <circle cx="4120.0" cy="2620.0" r="34.6" fill="none" stroke="#9A9A9A" stroke-width="1.4" opacity="0.72"/>
    <circle cx="4120.0" cy="2620.0" r="32.4" fill="#F6F6F6" filter="url(#buttonLiftStrong)"/>
    <circle cx="1564.0" cy="326.0" r="18.3" fill="#A8A8A8" opacity="0.38"/>
    <circle cx="1560.0" cy="320.0" r="19.5" fill="none" stroke="#9A9A9A" stroke-width="1.4" opacity="0.72"/>
    <circle cx="1560.0" cy="320.0" r="17.3" fill="#F6F6F6" filter="url(#buttonLiftStrong)"/>
    <circle cx="2864.0" cy="2486.0" r="20.4" fill="#A8A8A8" opacity="0.38"/>
    <circle cx="2860.0" cy="2480.0" r="21.6" fill="none" stroke="#9A9A9A" stroke-width="1.4" opacity="0.72"/>
    <circle cx="2860.0" cy="2480.0" r="19.4" fill="#F6F6F6" filter="url(#buttonLiftStrong)"/>
    <circle cx="3184.0" cy="386.0" r="22.6" fill="#A8A8A8" opacity="0.38"/>
    <circle cx="3180.0" cy="380.0" r="23.8" fill="none" stroke="#9A9A9A" stroke-width="1.4" opacity="0.72"/>
    <circle cx="3180.0" cy="380.0" r="21.6" fill="#F6F6F6" filter="url(#buttonLiftStrong)"/>
    <circle cx="984.0" cy="1286.0" r="16.1" fill="#A8A8A8" opacity="0.38"/>
    <circle cx="980.0" cy="1280.0" r="17.3" fill="none" stroke="#9A9A9A" stroke-width="1.4" opacity="0.72"/>
    <circle cx="980.0" cy="1280.0" r="15.1" fill="#F6F6F6" filter="url(#buttonLiftStrong)"/>
    <circle cx="4584.0" cy="1386.0" r="18.3" fill="#A8A8A8" opacity="0.38"/>
    <circle cx="4580.0" cy="1380.0" r="19.5" fill="none" stroke="#9A9A9A" stroke-width="1.4" opacity="0.72"/>
    <circle cx="4580.0" cy="1380.0" r="17.3" fill="#F6F6F6" filter="url(#buttonLiftStrong)"/>
  </g>
</svg>